<svg width="232" height="57" viewBox="0 0 232 57" fill="none" xmlns="http://www.w3.org/2000/svg">
<path d="M32.64 4.8C33.4667 4.96 34.08 5.24 34.48 5.64C34.9067 6.04 35.12 6.50667 35.12 7.04C35.12 7.92 34.8667 8.56 34.36 8.96C33.88 9.36 33.1067 9.52 32.04 9.44C29.64 9.25333 27.76 9.13333 26.4 9.08C25.0667 9 23.3067 8.94667 21.12 8.92C20.1333 13.8267 19.2267 18.76 18.4 23.72C18.1067 25.5333 17.8 27.64 17.48 30.04C17.16 32.4133 16.9467 34.3333 16.84 35.8C16.7867 36.5733 16.4667 37.1733 15.88 37.6C15.2933 38 14.5867 38.2 13.76 38.2C12.88 38.2 12.2 37.9867 11.72 37.56C11.24 37.1333 11 36.5733 11 35.88C11 35.24 11.0933 34.1867 11.28 32.72C11.4933 31.2267 11.7333 29.6667 12 28.04C12.2933 26.4133 12.52 25 12.68 23.8C12.9733 21.7733 13.3067 19.76 13.68 17.76C14.0533 15.76 14.4267 13.8667 14.8 12.08C14.88 11.68 14.9733 11.2267 15.08 10.72C15.1867 10.1867 15.3067 9.6 15.44 8.96C12.8267 9.04 10.7733 9.25333 9.28 9.6C7.78667 9.94667 6.72 10.44 6.08 11.08C5.46667 11.6933 5.16 12.4933 5.16 13.48C5.16 14.3867 5.42667 15.2533 5.96 16.08C6.06667 16.2667 6.12 16.4667 6.12 16.68C6.12 17.1867 5.81333 17.6667 5.2 18.12C4.61333 18.5467 4 18.76 3.36 18.76C2.90667 18.76 2.53333 18.6267 2.24 18.36C1.70667 17.9067 1.26667 17.2667 0.92 16.44C0.573333 15.5867 0.4 14.6267 0.4 13.56C0.4 11.2933 1.13333 9.48 2.6 8.12C4.09333 6.73333 6.34667 5.72 9.36 5.08C12.4 4.44 16.2933 4.12 21.04 4.12C23.9733 4.12 26.3067 4.17333 28.04 4.28C29.8 4.38666 31.3333 4.56 32.64 4.8ZM30.4397 38.2C29.4264 38.2 28.7064 37.6667 28.2797 36.6C27.8797 35.5333 27.6797 33.8267 27.6797 31.48C27.6797 28.0133 28.173 24.72 29.1597 21.6C29.3997 20.8267 29.7864 20.2667 30.3197 19.92C30.8797 19.5467 31.653 19.36 32.6397 19.36C33.173 19.36 33.5464 19.4267 33.7597 19.56C33.973 19.6933 34.0797 19.9467 34.0797 20.32C34.0797 20.7467 33.8797 21.7067 33.4797 23.2C33.213 24.2667 32.9997 25.2 32.8397 26C32.6797 26.8 32.5464 27.7867 32.4397 28.96C33.3197 26.6667 34.3064 24.8 35.3997 23.36C36.493 21.92 37.5597 20.8933 38.5997 20.28C39.6664 19.6667 40.6397 19.36 41.5197 19.36C43.253 19.36 44.1197 20.2267 44.1197 21.96C44.1197 22.3067 43.9997 23.1467 43.7597 24.48C43.5464 25.5467 43.4397 26.2133 43.4397 26.48C43.4397 27.4133 43.773 27.88 44.4397 27.88C45.1864 27.88 46.1464 27.2933 47.3197 26.12C47.6664 25.7733 48.0264 25.6 48.3997 25.6C48.7464 25.6 49.013 25.76 49.1997 26.08C49.413 26.3733 49.5197 26.7733 49.5197 27.28C49.5197 28.2667 49.253 29.04 48.7197 29.6C47.973 30.3733 47.093 31.04 46.0797 31.6C45.093 32.1333 44.0397 32.4 42.9197 32.4C41.5064 32.4 40.4264 32.04 39.6797 31.32C38.9597 30.6 38.5997 29.6267 38.5997 28.4C38.5997 28 38.6397 27.6 38.7197 27.2C38.773 26.6667 38.7997 26.3067 38.7997 26.12C38.7997 25.6933 38.653 25.48 38.3597 25.48C37.9597 25.48 37.4264 25.9333 36.7597 26.84C36.1197 27.72 35.4797 28.8933 34.8397 30.36C34.1997 31.8267 33.6797 33.3733 33.2797 35C32.9864 36.2533 32.6397 37.1067 32.2397 37.56C31.8664 37.9867 31.2664 38.2 30.4397 38.2ZM50.7228 38.2C49.0695 38.2 47.7495 37.6 46.7628 36.4C45.7761 35.2 45.2828 33.6267 45.2828 31.68C45.2828 29.5467 45.7761 27.5333 46.7628 25.64C47.7495 23.72 49.0561 22.1867 50.6828 21.04C52.3361 19.8667 54.0828 19.28 55.9228 19.28C56.5095 19.28 56.8961 19.4 57.0828 19.64C57.2961 19.8533 57.4695 20.2533 57.6028 20.84C58.1628 20.7333 58.7495 20.68 59.3628 20.68C60.6695 20.68 61.3228 21.1467 61.3228 22.08C61.3228 22.64 61.1228 23.9733 60.7228 26.08C60.1095 29.1467 59.8028 31.28 59.8028 32.48C59.8028 32.88 59.8961 33.2 60.0828 33.44C60.2961 33.68 60.5628 33.8 60.8828 33.8C61.3895 33.8 62.0028 33.48 62.7228 32.84C63.4428 32.1733 64.4161 31.1067 65.6428 29.64C65.9628 29.2667 66.3228 29.08 66.7228 29.08C67.0695 29.08 67.3361 29.24 67.5228 29.56C67.7361 29.88 67.8428 30.32 67.8428 30.88C67.8428 31.9467 67.5895 32.7733 67.0828 33.36C65.9895 34.72 64.8295 35.8667 63.6028 36.8C62.3761 37.7333 61.1895 38.2 60.0428 38.2C59.1628 38.2 58.3495 37.9067 57.6028 37.32C56.8828 36.7067 56.3361 35.88 55.9628 34.84C54.5761 37.08 52.8295 38.2 50.7228 38.2ZM52.1628 34.16C52.7495 34.16 53.3095 33.8133 53.8428 33.12C54.3761 32.4267 54.7628 31.5067 55.0028 30.36L56.4828 23C55.3628 23.0267 54.3228 23.4533 53.3628 24.28C52.4295 25.08 51.6828 26.1467 51.1228 27.48C50.5628 28.8133 50.2828 30.2267 50.2828 31.72C50.2828 32.5467 50.4428 33.16 50.7628 33.56C51.1095 33.96 51.5761 34.16 52.1628 34.16ZM84.7825 25.84C84.8625 25.8133 84.9958 25.8 85.1825 25.8C85.5825 25.8 85.8892 25.9333 86.1025 26.2C86.3158 26.4667 86.4225 26.8267 86.4225 27.28C86.4225 28.1067 86.2625 28.76 85.9425 29.24C85.6225 29.6933 85.1425 30.0267 84.5025 30.24C83.2758 30.64 81.9692 30.84 80.5825 30.84C79.4092 30.84 78.3025 30.68 77.2625 30.36C76.4892 31.6133 75.6358 32.9067 74.7025 34.24C73.6358 35.76 72.7158 36.8 71.9425 37.36C71.1692 37.92 70.2892 38.2 69.3025 38.2C68.2092 38.2 67.3425 37.7733 66.7025 36.92C66.0892 36.0667 65.7025 34.72 65.5425 32.88C65.2225 29.1467 65.0625 25.88 65.0625 23.08V21.68C65.0892 20.8 65.3292 20.1867 65.7825 19.84C66.2358 19.4933 66.9158 19.32 67.8225 19.32C68.5158 19.32 69.0225 19.48 69.3425 19.8C69.6892 20.0933 69.8625 20.6 69.8625 21.32C69.8625 24.3867 70.0492 28.3733 70.4225 33.28C72.0225 30.9067 73.2225 29.0133 74.0225 27.6C73.6225 26.8267 73.4225 25.9067 73.4225 24.84C73.4225 23.9333 73.6225 23.0533 74.0225 22.2C74.4225 21.3467 74.9692 20.6533 75.6625 20.12C76.3558 19.5867 77.1425 19.32 78.0225 19.32C78.7958 19.32 79.4225 19.6 79.9025 20.16C80.3825 20.6933 80.6225 21.48 80.6225 22.52C80.6225 23.72 80.3025 25.0933 79.6625 26.64C80.6758 26.5867 82.0225 26.3867 83.7025 26.04L84.7825 25.84ZM100.791 29.08C101.138 29.08 101.405 29.24 101.591 29.56C101.805 29.88 101.911 30.32 101.911 30.88C101.911 31.9467 101.658 32.7733 101.151 33.36C100.165 34.56 98.7646 35.6667 96.9513 36.68C95.1646 37.6933 93.2446 38.2 91.1913 38.2C88.3913 38.2 86.2179 37.44 84.6713 35.92C83.1246 34.4 82.3512 32.32 82.3512 29.68C82.3512 27.84 82.7379 26.1333 83.5113 24.56C84.2846 22.96 85.3513 21.6933 86.7113 20.76C88.0979 19.8267 89.6579 19.36 91.3913 19.36C92.9379 19.36 94.1779 19.8267 95.1113 20.76C96.0446 21.6667 96.5113 22.9067 96.5113 24.48C96.5113 26.32 95.8446 27.9067 94.5113 29.24C93.2046 30.5467 90.9779 31.5867 87.8313 32.36C88.4979 33.5867 89.7646 34.2 91.6313 34.2C92.8313 34.2 94.1913 33.7867 95.7113 32.96C97.2579 32.1067 98.5913 31 99.7113 29.64C100.031 29.2667 100.391 29.08 100.791 29.08ZM90.7113 23.28C89.7246 23.28 88.8846 23.8533 88.1913 25C87.5246 26.1467 87.1913 27.5333 87.1913 29.16V29.24C88.7646 28.8667 90.0046 28.3067 90.9113 27.56C91.8179 26.8133 92.2713 25.9467 92.2713 24.96C92.2713 24.4533 92.1246 24.0533 91.8313 23.76C91.5646 23.44 91.1913 23.28 90.7113 23.28ZM110.214 32.36C110.508 32.0933 110.801 31.96 111.094 31.96C111.414 31.96 111.668 32.1467 111.854 32.52C112.068 32.8667 112.174 33.2933 112.174 33.8C112.174 34.92 111.774 35.8133 110.974 36.48C109.588 37.6267 108.014 38.2 106.254 38.2C103.721 38.2 101.868 37.1467 100.694 35.04C99.521 32.9067 98.9344 30.1333 98.9344 26.72C98.9344 23.4667 99.3477 19.76 100.174 15.6C101.028 11.44 102.268 7.86667 103.894 4.88C105.548 1.89333 107.508 0.399998 109.774 0.399998C111.054 0.399998 112.054 0.999998 112.774 2.2C113.521 3.37333 113.894 5.06667 113.894 7.28C113.894 10.4533 113.014 14.1333 111.254 18.32C109.521 22.5067 107.148 26.64 104.134 30.72C104.321 31.8133 104.654 32.6 105.134 33.08C105.614 33.56 106.268 33.8 107.094 33.8C107.548 33.8 108.054 33.6667 108.614 33.4C109.201 33.1333 109.734 32.7867 110.214 32.36ZM108.894 4.36C108.281 4.36 107.588 5.46667 106.814 7.68C106.041 9.89333 105.361 12.64 104.774 15.92C104.188 19.2 103.868 22.3467 103.814 25.36C105.708 22.24 107.214 19.12 108.334 16C109.454 12.8533 110.014 9.98666 110.014 7.4C110.014 5.37333 109.641 4.36 108.894 4.36ZM156.767 12.4C156.767 14.6667 155.967 16.6267 154.367 18.28C152.767 19.9067 150.434 21.08 147.367 21.8C149.02 22.2533 150.274 23 151.127 24.04C151.98 25.0533 152.407 26.2267 152.407 27.56C152.407 29.6667 151.74 31.4933 150.407 33.04C149.1 34.5867 147.18 35.7867 144.647 36.64C142.114 37.4667 139.06 37.88 135.487 37.88C134.154 37.88 133.087 37.84 132.287 37.76C132.26 38.5067 131.94 39.0667 131.327 39.44C130.714 39.8133 129.927 40 128.967 40C128.007 40 127.34 39.7867 126.967 39.36C126.62 38.9333 126.474 38.3067 126.527 37.48C126.767 33.7467 127.234 29.84 127.927 25.76C128.62 21.6533 129.5 17.6933 130.567 13.88C130.754 13.2133 131.127 12.7467 131.687 12.48C132.247 12.2133 132.98 12.08 133.887 12.08C135.514 12.08 136.327 12.5333 136.327 13.44C136.327 13.8133 136.247 14.24 136.087 14.72C135.394 16.8 134.7 19.6267 134.007 23.2C133.314 26.7467 132.82 30.1333 132.527 33.36C133.807 33.4667 134.847 33.52 135.647 33.52C139.38 33.52 142.114 32.9867 143.847 31.92C145.607 30.8267 146.487 29.44 146.487 27.76C146.487 26.5867 145.98 25.6 144.967 24.8C143.98 24 142.314 23.56 139.967 23.48C139.434 23.4533 139.06 23.32 138.847 23.08C138.634 22.84 138.527 22.4533 138.527 21.92C138.527 21.1467 138.687 20.52 139.007 20.04C139.327 19.56 139.914 19.3067 140.767 19.28C142.66 19.2267 144.367 18.9467 145.887 18.44C147.434 17.9333 148.647 17.2267 149.527 16.32C150.407 15.3867 150.847 14.3067 150.847 13.08C150.847 11.5333 150.087 10.32 148.567 9.44C147.047 8.53333 144.714 8.08 141.567 8.08C138.714 8.08 135.954 8.45333 133.287 9.2C130.62 9.92 128.354 10.84 126.487 11.96C125.634 12.4667 124.914 12.72 124.327 12.72C123.847 12.72 123.474 12.56 123.207 12.24C122.967 11.8933 122.847 11.4667 122.847 10.96C122.847 10.2933 122.98 9.72 123.247 9.24C123.54 8.76 124.22 8.21333 125.287 7.6C127.527 6.32 130.154 5.32 133.167 4.6C136.18 3.88 139.26 3.52 142.407 3.52C147.234 3.52 150.834 4.33333 153.207 5.96C155.58 7.58667 156.767 9.73333 156.767 12.4ZM160.352 38.2C159.152 38.2 158.165 37.6533 157.392 36.56C156.645 35.44 156.272 34.0533 156.272 32.4C156.272 30.4 156.405 28.5733 156.672 26.92C156.938 25.24 157.378 23.4667 157.992 21.6C158.258 20.8 158.632 20.2267 159.112 19.88C159.592 19.5333 160.352 19.36 161.392 19.36C161.978 19.36 162.378 19.4533 162.592 19.64C162.832 19.8267 162.952 20.1067 162.952 20.48C162.952 20.6933 162.805 21.4133 162.512 22.64C162.245 23.6267 162.032 24.52 161.872 25.32C161.338 28.12 161.072 29.9867 161.072 30.92C161.072 31.48 161.138 31.88 161.272 32.12C161.405 32.3333 161.618 32.44 161.912 32.44C162.312 32.44 162.805 32.04 163.392 31.24C164.005 30.44 164.645 29.2267 165.312 27.6C166.005 25.9733 166.672 23.9733 167.312 21.6C167.525 20.8 167.845 20.2267 168.272 19.88C168.725 19.5333 169.392 19.36 170.272 19.36C170.885 19.36 171.312 19.44 171.552 19.6C171.792 19.7333 171.912 20 171.912 20.4C171.912 21.0667 171.578 22.8933 170.912 25.88C170.165 29.2933 169.792 31.4 169.792 32.2C169.792 32.7067 169.898 33.1067 170.112 33.4C170.325 33.6667 170.605 33.8 170.952 33.8C171.485 33.8 172.112 33.48 172.832 32.84C173.578 32.1733 174.565 31.1067 175.792 29.64C176.112 29.2667 176.472 29.08 176.872 29.08C177.218 29.08 177.485 29.24 177.672 29.56C177.885 29.88 177.992 30.32 177.992 30.88C177.992 31.9467 177.738 32.7733 177.232 33.36C176.085 34.7733 174.845 35.9333 173.512 36.84C172.205 37.7467 170.712 38.2 169.032 38.2C167.752 38.2 166.805 37.7067 166.192 36.72C165.605 35.7333 165.312 34.3467 165.312 32.56C164.858 34.3733 164.178 35.7733 163.272 36.76C162.365 37.72 161.392 38.2 160.352 38.2ZM197.468 29.08C197.815 29.08 198.081 29.24 198.268 29.56C198.481 29.88 198.588 30.32 198.588 30.88C198.588 31.9467 198.335 32.7733 197.828 33.36C196.735 34.6933 195.535 35.84 194.228 36.8C192.921 37.7333 191.628 38.2 190.348 38.2C188.321 38.2 186.775 37.0133 185.708 34.64C184.588 36.0533 183.601 37 182.748 37.48C181.921 37.96 180.948 38.2 179.828 38.2C178.201 38.2 176.855 37.6 175.788 36.4C174.748 35.1733 174.228 33.5867 174.228 31.64C174.228 29.5067 174.681 27.5333 175.588 25.72C176.495 23.88 177.735 22.3867 179.308 21.24C180.908 20.0667 182.695 19.3733 184.668 19.16C185.175 13.9867 186.135 9.57333 187.548 5.92C188.988 2.24 190.868 0.399998 193.188 0.399998C194.335 0.399998 195.281 0.919998 196.028 1.96C196.801 3 197.188 4.57333 197.188 6.68C197.188 9.66667 196.455 13.16 194.988 17.16C193.521 21.16 191.561 25.2667 189.108 29.48C189.215 31.0267 189.441 32.1333 189.788 32.8C190.161 33.4667 190.628 33.8 191.188 33.8C191.908 33.8 192.641 33.48 193.388 32.84C194.135 32.2 195.135 31.1333 196.388 29.64C196.708 29.2667 197.068 29.08 197.468 29.08ZM192.748 4.32C192.241 4.32 191.735 5.22666 191.228 7.04C190.721 8.82667 190.281 11.1733 189.908 14.08C189.561 16.9867 189.308 20.0267 189.148 23.2C192.135 16.6933 193.628 11.4667 193.628 7.52C193.628 6.50667 193.535 5.72 193.348 5.16C193.188 4.6 192.988 4.32 192.748 4.32ZM181.228 34.16C181.735 34.16 182.241 33.96 182.748 33.56C183.255 33.1333 183.895 32.36 184.668 31.24C184.401 29.8 184.268 28.1867 184.268 26.4C184.268 25.76 184.295 24.72 184.348 23.28C182.881 23.7333 181.655 24.72 180.668 26.24C179.708 27.7333 179.228 29.4 179.228 31.24C179.228 33.1867 179.895 34.16 181.228 34.16ZM217.663 29.08C218.01 29.08 218.277 29.24 218.463 29.56C218.677 29.88 218.783 30.32 218.783 30.88C218.783 31.9467 218.53 32.7733 218.023 33.36C216.93 34.6933 215.73 35.84 214.423 36.8C213.117 37.7333 211.823 38.2 210.543 38.2C208.517 38.2 206.97 37.0133 205.903 34.64C204.783 36.0533 203.797 37 202.943 37.48C202.117 37.96 201.143 38.2 200.023 38.2C198.397 38.2 197.05 37.6 195.983 36.4C194.943 35.1733 194.423 33.5867 194.423 31.64C194.423 29.5067 194.877 27.5333 195.783 25.72C196.69 23.88 197.93 22.3867 199.503 21.24C201.103 20.0667 202.89 19.3733 204.863 19.16C205.37 13.9867 206.33 9.57333 207.743 5.92C209.183 2.24 211.063 0.399998 213.383 0.399998C214.53 0.399998 215.477 0.919998 216.223 1.96C216.997 3 217.383 4.57333 217.383 6.68C217.383 9.66667 216.65 13.16 215.183 17.16C213.717 21.16 211.757 25.2667 209.303 29.48C209.41 31.0267 209.637 32.1333 209.983 32.8C210.357 33.4667 210.823 33.8 211.383 33.8C212.103 33.8 212.837 33.48 213.583 32.84C214.33 32.2 215.33 31.1333 216.583 29.64C216.903 29.2667 217.263 29.08 217.663 29.08ZM212.943 4.32C212.437 4.32 211.93 5.22666 211.423 7.04C210.917 8.82667 210.477 11.1733 210.103 14.08C209.757 16.9867 209.503 20.0267 209.343 23.2C212.33 16.6933 213.823 11.4667 213.823 7.52C213.823 6.50667 213.73 5.72 213.543 5.16C213.383 4.6 213.183 4.32 212.943 4.32ZM201.423 34.16C201.93 34.16 202.437 33.96 202.943 33.56C203.45 33.1333 204.09 32.36 204.863 31.24C204.597 29.8 204.463 28.1867 204.463 26.4C204.463 25.76 204.49 24.72 204.543 23.28C203.077 23.7333 201.85 24.72 200.863 26.24C199.903 27.7333 199.423 29.4 199.423 31.24C199.423 33.1867 200.09 34.16 201.423 34.16ZM229.529 19.36C230.143 19.36 230.569 19.44 230.809 19.6C231.049 19.76 231.169 20.0267 231.169 20.4C231.169 21.04 230.823 23.32 230.129 27.24C229.516 31 229.156 33.2267 229.049 33.92C228.063 40.7733 226.703 46.2 224.969 50.2C223.236 54.2 220.929 56.2 218.049 56.2C216.689 56.2 215.583 55.7733 214.729 54.92C213.876 54.0933 213.449 53 213.449 51.64C213.449 50.3867 213.729 49.1067 214.289 47.8C214.876 46.4933 215.943 44.9867 217.489 43.28C219.063 41.6 221.276 39.6667 224.129 37.48L224.249 36.56C224.436 35.5733 224.649 34.16 224.889 32.32C224.356 34.24 223.609 35.7067 222.649 36.72C221.689 37.7067 220.676 38.2 219.609 38.2C218.409 38.2 217.423 37.6533 216.649 36.56C215.903 35.44 215.529 34.0533 215.529 32.4C215.529 30.4 215.663 28.5733 215.929 26.92C216.196 25.24 216.636 23.4667 217.249 21.6C217.516 20.8 217.889 20.2267 218.369 19.88C218.849 19.5333 219.609 19.36 220.649 19.36C221.236 19.36 221.636 19.4533 221.849 19.64C222.089 19.8267 222.209 20.1067 222.209 20.48C222.209 20.6933 222.063 21.4133 221.769 22.64C221.503 23.6267 221.289 24.52 221.129 25.32C220.916 26.4133 220.729 27.4667 220.569 28.48C220.409 29.4667 220.329 30.28 220.329 30.92C220.329 31.9333 220.609 32.44 221.169 32.44C221.569 32.44 222.063 32.04 222.649 31.24C223.263 30.44 223.903 29.2267 224.569 27.6C225.263 25.9733 225.929 23.9733 226.569 21.6C226.783 20.8 227.103 20.2267 227.529 19.88C227.983 19.5333 228.649 19.36 229.529 19.36ZM218.489 52.32C219.156 52.32 219.903 51.5467 220.729 50C221.556 48.4533 222.383 45.88 223.209 42.28C221.156 44.0133 219.663 45.5867 218.729 47C217.823 48.44 217.369 49.6933 217.369 50.76C217.369 51.2133 217.449 51.5867 217.609 51.88C217.796 52.1733 218.089 52.32 218.489 52.32Z" fill="#0BC1C1"/>
</svg>
